<?xml version="1.0" standalone="no"?>
<!DOCTYPE svg PUBLIC "-//W3C//DTD SVG 20010904//EN"
 "http://www.w3.org/TR/2001/REC-SVG-20010904/DTD/svg10.dtd">
<svg version="1.0" xmlns="http://www.w3.org/2000/svg"
 width="512.000000pt" height="512.000000pt" viewBox="0 0 512.000000 512.000000"
 preserveAspectRatio="xMidYMid meet">
<metadata>
Created by potrace 1.16, written by Peter Selinger 2001-2019
</metadata>
<g transform="translate(0.000000,512.000000) scale(0.100000,-0.100000)"
fill="#000000" stroke="none">
<path d="M2360 4429 c-110 -13 -220 -37 -335 -73 -92 -29 -113 -41 -226 -126
-83 -62 -156 -108 -219 -136 -120 -54 -303 -109 -414 -126 l-86 -12 0 -93 c0
-97 0 -97 46 -95 21 1 21 -4 27 -216 10 -352 55 -714 118 -952 55 -203 59
-224 59 -306 0 -74 4 -90 45 -185 77 -176 236 -456 320 -564 16 -20 16 -20 35
5 11 14 17 32 14 40 -7 21 5 6 61 -75 27 -38 85 -117 129 -173 45 -57 94 -122
109 -143 l28 -39 -25 -12 c-15 -6 -26 -16 -26 -22 0 -17 316 -324 408 -396
130 -102 121 -98 177 -60 27 18 44 27 40 20 -6 -11 2 -12 44 -7 103 12 183 64
354 232 215 211 327 346 408 495 43 79 101 179 126 220 12 19 25 47 28 62 4
15 11 30 16 33 5 4 9 15 9 26 0 10 4 19 8 19 12 0 34 68 26 81 -5 8 -3 9 6 4
10 -6 12 -4 7 8 -3 10 -2 17 3 17 6 0 9 3 8 8 -4 12 24 72 34 72 6 0 8 7 4 15
-3 8 -1 15 5 15 6 0 7 5 4 10 -3 6 -1 10 6 10 7 0 9 3 6 6 -3 4 -1 16 5 28 7
11 11 24 10 29 -1 4 3 7 9 7 5 0 7 5 4 10 -3 6 -1 10 6 10 7 0 9 3 6 7 -4 3
-2 12 4 20 6 7 8 13 5 13 -4 0 -1 10 6 23 6 12 13 27 14 33 1 5 20 66 42 135
72 224 146 631 144 797 0 28 4 52 10 52 5 0 7 4 3 9 -3 5 -1 29 4 53 15 65 15
108 1 421 l-13 287 -50 0 c-38 0 -53 -5 -66 -22 l-18 -21 -94 17 c-174 31
-371 101 -512 183 -34 20 -109 70 -165 111 -88 63 -120 80 -208 109 -108 34
-305 73 -376 73 -31 0 -41 4 -45 20 -3 11 -13 19 -22 19 -9 -1 -50 -5 -91 -10z
m300 -109 c197 -37 283 -70 410 -160 136 -96 223 -145 345 -193 108 -43 286
-90 409 -108 l88 -13 19 25 c19 24 19 20 15 -326 -9 -715 -91 -1104 -333
-1578 -138 -270 -471 -696 -749 -956 -93 -87 -291 -241 -310 -241 -33 0 -293
226 -406 353 -214 240 -468 601 -625 887 -80 146 -154 357 -218 625 -72 300
-102 564 -112 976 l-6 277 59 11 c98 19 335 99 430 146 49 25 139 80 200 124
118 85 187 115 342 146 186 38 257 38 442 5z m1357 -977 c-2 -16 -4 -5 -4 22
0 28 2 40 4 28 2 -13 2 -35 0 -50z m-576 -1755 c-124 -196 -241 -337 -490
-593 -75 -77 -164 -171 -198 -210 -33 -38 -64 -67 -67 -64 -4 4 5 32 20 63 21
45 51 78 149 166 181 163 380 382 544 603 41 53 75 97 77 97 3 0 -13 -28 -35
-62z"/>
<path d="M2389 4083 c-102 -91 -147 -127 -254 -200 -68 -46 -100 -73 -97 -84
6 -33 -270 -152 -500 -214 l-56 -16 -7 -96 c-11 -147 1 -572 19 -688 31 -194
88 -401 147 -532 26 -58 27 -63 9 -60 -11 2 -23 6 -26 10 -51 51 55 -163 156
-317 79 -120 198 -269 307 -385 73 -79 80 -83 102 -72 22 12 22 13 4 34 -10
12 32 -25 93 -83 61 -58 147 -133 191 -167 l81 -63 129 102 c163 129 366 333
466 468 43 58 87 115 97 128 11 12 19 25 20 27 0 3 3 4 8 3 10 -4 8 -9 -44
-90 -79 -123 -163 -228 -279 -347 -152 -156 -373 -341 -409 -341 -8 0 -46 23
-83 51 -83 63 -55 29 37 -44 67 -54 121 -80 146 -70 21 8 76 91 69 103 -4 6
-3 9 2 8 4 -2 19 9 33 22 14 14 71 64 127 112 235 203 454 479 584 735 150
295 221 574 238 939 8 169 0 528 -15 637 l-6 47 -51 0 c-74 0 -315 37 -427 65
-270 67 -464 174 -659 360 -43 41 -80 75 -82 75 -3 0 -34 -26 -70 -57z m276
-218 c168 -128 430 -217 795 -269 l155 -22 0 -244 c-1 -393 -44 -655 -161
-976 -108 -300 -262 -550 -468 -763 -97 -99 -299 -276 -384 -335 l-41 -28 -47
34 -47 33 6 160 c6 157 25 325 70 616 l22 145 120 103 c66 57 210 185 320 286
110 101 226 204 257 230 67 55 65 46 73 274 3 91 8 196 12 234 l6 69 -149 -6
c-82 -3 -276 -8 -430 -12 l-282 -6 -42 56 -42 56 -95 0 c-93 0 -94 0 -146 -39
-29 -21 -78 -53 -109 -72 -31 -18 -55 -35 -53 -37 2 -2 12 1 23 7 17 9 22 6
32 -18 9 -22 9 -35 1 -50 -7 -13 24 4 84 46 52 36 95 70 95 74 0 5 35 9 78 9
l78 0 35 -46 34 -46 396 4 395 3 -8 -45 c-4 -25 -11 -121 -16 -214 l-9 -169
-34 -31 c-184 -164 -644 -573 -655 -582 -14 -11 -46 -294 -75 -649 -16 -203
-18 -173 -14 203 3 199 2 438 -2 531 l-6 168 -217 187 c-245 211 -223 177
-236 364 -4 56 -11 102 -15 102 -5 0 -18 -9 -29 -20 -15 -15 -20 -33 -20 -72
1 -45 11 -145 23 -211 2 -10 102 -104 223 -209 l219 -192 8 -75 c7 -72 26
-1062 20 -1070 -1 -2 -52 45 -112 105 l-109 109 -6 60 c-7 73 -44 600 -50 705
-2 41 -2 -99 -1 -312 2 -214 0 -388 -2 -388 -3 0 -23 20 -44 43 -228 259 -401
579 -484 890 -59 222 -92 563 -79 809 l7 127 156 53 c176 59 295 116 438 210
98 64 253 188 307 246 l29 31 71 -64 c39 -36 98 -85 131 -110z m659 -1913 c3
-5 -1 -9 -9 -9 -8 0 -12 4 -9 9 3 4 7 8 9 8 2 0 6 -4 9 -8z m-14 -48 c0 -8
-19 -13 -24 -6 -3 5 1 9 9 9 8 0 15 -2 15 -3z"/>
<path d="M1676 3483 l-39 -4 7 -190 c3 -104 11 -200 15 -212 8 -21 96 -84 234
-166 72 -44 36 -10 -85 80 -116 86 -123 93 -130 132 -8 53 -10 300 -2 321 5
13 27 16 133 17 69 0 155 6 191 14 64 13 61 13 -110 12 -96 0 -193 -2 -214 -4z"/>
<path d="M2775 3480 c-4 -7 78 -10 240 -10 162 0 244 3 240 10 -4 6 -95 10
-240 10 -145 0 -236 -4 -240 -10z"/>
<path d="M3404 2937 c-42 -57 -49 -73 -64 -137 -38 -172 -145 -491 -201 -602
-32 -62 -17 -54 28 16 60 92 117 209 156 322 41 118 125 446 114 444 -1 -1
-16 -20 -33 -43z"/>
<path d="M1980 2637 c0 -3 28 -23 63 -44 85 -54 87 -55 87 -49 0 3 -17 16 -37
29 -89 55 -113 68 -113 64z"/>
<path d="M1560 2310 c13 -30 25 -63 27 -72 3 -10 9 -18 13 -18 8 0 -41 124
-54 138 -4 4 2 -18 14 -48z"/>
</g>
</svg>